<svg xmlns="http://www.w3.org/2000/svg" version="1.1" xmlns:xlink="http://www.w3.org/1999/xlink" xmlns:svgjs="http://svgjs.dev/svgjs" width="1440" height="560" preserveAspectRatio="none" viewBox="0 0 1440 560"><g mask="url(&quot;#SvgjsMask1304&quot;)" fill="none"><path d="M -244.19201594208334,258 C -172.19,291 -28.19,450.4 115.80798405791667,423 C 259.81,395.6 331.81,132.8 475.80798405791666,121 C 619.81,109.2 691.81,347.4 835.8079840579167,364 C 979.81,380.6 1051.81,217.4 1195.8079840579167,204 C 1339.81,190.6 1506.97,325.2 1555.8079840579167,297 C 1604.65,268.8 1463.16,109.8 1440,63" stroke="rgba(255, 255, 255, 0.25)" stroke-width="2"></path><path d="M -668.0585739381207,263 C -596.06,278.8 -452.06,366.4 -308.05857393812073,342 C -164.06,317.6 -92.06,143.2 51.94142606187927,141 C 195.94,138.8 267.94,336.6 411.94142606187927,331 C 555.94,325.4 627.94,94.6 771.9414260618793,113 C 915.94,131.4 998.33,418 1131.9414260618792,423 C 1265.55,428 1378.39,195 1440,138" stroke="rgba(255, 255, 255, 0.25)" stroke-width="2"></path></g><defs><mask id="SvgjsMask1304"><rect width="1440" height="560" fill="#ffffff"></rect></mask></defs></svg>