<svg id="visual" viewBox="0 0 1920 1080" width="1920" height="1080" xmlns="http://www.w3.org/2000/svg" xmlns:xlink="http://www.w3.org/1999/xlink" version="1.1"><rect x="0" y="0" width="1920" height="1080" fill="#001220"></rect><path d="M0 382L45.7 414.2C91.3 446.3 182.7 510.7 274.2 536.2C365.7 561.7 457.3 548.3 548.8 532.2C640.3 516 731.7 497 823 524.5C914.3 552 1005.7 626 1097 631C1188.3 636 1279.7 572 1371.2 526C1462.7 480 1554.3 452 1645.8 479.7C1737.3 507.3 1828.7 590.7 1874.3 632.3L1920 674L1920 0L1874.3 0C1828.7 0 1737.3 0 1645.8 0C1554.3 0 1462.7 0 1371.2 0C1279.7 0 1188.3 0 1097 0C1005.7 0 914.3 0 823 0C731.7 0 640.3 0 548.8 0C457.3 0 365.7 0 274.2 0C182.7 0 91.3 0 45.7 0L0 0Z" fill="#03c988"></path><path d="M0 324L45.7 350C91.3 376 182.7 428 274.2 418.2C365.7 408.3 457.3 336.7 548.8 299C640.3 261.3 731.7 257.7 823 281.5C914.3 305.3 1005.7 356.7 1097 370C1188.3 383.3 1279.7 358.7 1371.2 345.8C1462.7 333 1554.3 332 1645.8 321.2C1737.3 310.3 1828.7 289.7 1874.3 279.3L1920 269L1920 0L1874.3 0C1828.7 0 1737.3 0 1645.8 0C1554.3 0 1462.7 0 1371.2 0C1279.7 0 1188.3 0 1097 0C1005.7 0 914.3 0 823 0C731.7 0 640.3 0 548.8 0C457.3 0 365.7 0 274.2 0C182.7 0 91.3 0 45.7 0L0 0Z" fill="#87e4b3"></path><path d="M0 287L45.7 260.2C91.3 233.3 182.7 179.7 274.2 156C365.7 132.3 457.3 138.7 548.8 144.7C640.3 150.7 731.7 156.3 823 178.8C914.3 201.3 1005.7 240.7 1097 237.2C1188.3 233.7 1279.7 187.3 1371.2 178.3C1462.7 169.3 1554.3 197.7 1645.8 222.5C1737.3 247.3 1828.7 268.7 1874.3 279.3L1920 290L1920 0L1874.3 0C1828.7 0 1737.3 0 1645.8 0C1554.3 0 1462.7 0 1371.2 0C1279.7 0 1188.3 0 1097 0C1005.7 0 914.3 0 823 0C731.7 0 640.3 0 548.8 0C457.3 0 365.7 0 274.2 0C182.7 0 91.3 0 45.7 0L0 0Z" fill="#cffde1"></path></svg>